<svg xmlns="http://www.w3.org/2000/svg" xmlns:xlink="http://www.w3.org/1999/xlink" width="150" zoomAndPan="magnify" viewBox="0 0 112.5 37.5" height="50" preserveAspectRatio="xMidYMid meet" version="1.0"><defs><g/><clipPath id="ec2fb682f1"><path d="M 0.492188 0 L 111.511719 0 L 111.511719 37.007812 L 0.492188 37.007812 Z M 0.492188 0 " clip-rule="nonzero"/></clipPath><clipPath id="05c9c364c8"><path d="M 45.746094 11.769531 L 59 11.769531 L 59 25.09375 L 45.746094 25.09375 Z M 45.746094 11.769531 " clip-rule="nonzero"/></clipPath></defs><g clip-path="url(#ec2fb682f1)"><path fill="#ffffff" d="M 0.492188 0 L 111.511719 0 L 111.511719 37.007812 L 0.492188 37.007812 Z M 0.492188 0 " fill-opacity="1" fill-rule="nonzero"/><path fill="#202020" d="M 0.492188 0 L 111.511719 0 L 111.511719 37.007812 L 0.492188 37.007812 Z M 0.492188 0 " fill-opacity="1" fill-rule="nonzero"/></g><g fill="#e4e0d7" fill-opacity="1"><g transform="translate(5.818316, 22.914103)"><g><path d="M 9.96875 -7.625 C 10.789062 -6.738281 11.203125 -5.648438 11.203125 -4.359375 C 11.203125 -3.066406 10.789062 -1.972656 9.96875 -1.078125 C 9.15625 -0.191406 8.125 0.25 6.875 0.25 C 5.71875 0.25 4.765625 -0.109375 4.015625 -0.828125 L 4.015625 4.40625 L 1.015625 4.40625 L 1.015625 -8.703125 L 3.984375 -8.703125 L 3.984375 -7.71875 L 4.015625 -7.71875 C 4.765625 -8.539062 5.71875 -8.953125 6.875 -8.953125 C 8.125 -8.953125 9.15625 -8.507812 9.96875 -7.625 Z M 7.421875 -2.890625 C 7.816406 -3.273438 8.015625 -3.765625 8.015625 -4.359375 C 8.015625 -4.960938 7.828125 -5.453125 7.453125 -5.828125 C 7.078125 -6.203125 6.582031 -6.390625 5.96875 -6.390625 C 5.382812 -6.390625 4.898438 -6.195312 4.515625 -5.8125 C 4.140625 -5.4375 3.953125 -4.953125 3.953125 -4.359375 C 3.953125 -3.765625 4.144531 -3.273438 4.53125 -2.890625 C 4.925781 -2.503906 5.40625 -2.3125 5.96875 -2.3125 C 6.550781 -2.3125 7.035156 -2.503906 7.421875 -2.890625 Z M 7.421875 -2.890625 "/></g></g></g><g fill="#e4e0d7" fill-opacity="1"><g transform="translate(16.083018, 22.914103)"><g><path d="M 1.015625 0 L 1.015625 -14.59375 L 4.015625 -14.59375 L 4.015625 0 Z M 1.015625 0 "/></g></g></g><g fill="#e4e0d7" fill-opacity="1"><g transform="translate(19.798469, 22.914103)"><g><path d="M 1.609375 -1.078125 C 0.796875 -1.960938 0.390625 -3.050781 0.390625 -4.34375 C 0.390625 -5.632812 0.796875 -6.722656 1.609375 -7.609375 C 2.421875 -8.503906 3.457031 -8.953125 4.71875 -8.953125 C 5.875 -8.953125 6.820312 -8.59375 7.5625 -7.875 L 7.5625 -8.703125 L 10.578125 -8.703125 L 10.578125 0 L 7.609375 0 L 7.609375 -0.984375 L 7.5625 -0.984375 C 6.820312 -0.160156 5.875 0.25 4.71875 0.25 C 3.457031 0.25 2.421875 -0.191406 1.609375 -1.078125 Z M 4.15625 -5.8125 C 3.769531 -5.4375 3.578125 -4.945312 3.578125 -4.34375 C 3.578125 -3.738281 3.765625 -3.25 4.140625 -2.875 C 4.515625 -2.5 5.003906 -2.3125 5.609375 -2.3125 C 6.203125 -2.3125 6.6875 -2.503906 7.0625 -2.890625 C 7.445312 -3.273438 7.640625 -3.757812 7.640625 -4.34375 C 7.640625 -4.945312 7.441406 -5.4375 7.046875 -5.8125 C 6.660156 -6.195312 6.179688 -6.390625 5.609375 -6.390625 C 5.035156 -6.390625 4.550781 -6.195312 4.15625 -5.8125 Z M 4.15625 -5.8125 "/></g></g></g><g fill="#e4e0d7" fill-opacity="1"><g transform="translate(30.06317, 22.914103)"><g><path d="M 7.625 -8.703125 L 11.078125 -8.703125 L 4.234375 4.40625 L 0.78125 4.40625 L 3.78125 -1.359375 L -0.34375 -8.703125 L 3.125 -8.703125 L 5.546875 -4.234375 Z M 7.625 -8.703125 "/></g></g></g><g fill="#e4e0d7" fill-opacity="1"><g transform="translate(39.479521, 22.914103)"><g><path d="M 5.65625 -6.5 C 5.082031 -6.5 4.59375 -6.289062 4.1875 -5.875 C 3.78125 -5.457031 3.578125 -4.953125 3.578125 -4.359375 C 3.578125 -3.765625 3.78125 -3.253906 4.1875 -2.828125 C 4.59375 -2.410156 5.082031 -2.203125 5.65625 -2.203125 C 5.925781 -2.203125 6.179688 -2.234375 6.421875 -2.296875 C 6.660156 -2.367188 6.835938 -2.441406 6.953125 -2.515625 L 7.109375 -2.609375 L 8.125 -0.53125 C 8.050781 -0.46875 7.941406 -0.394531 7.796875 -0.3125 C 7.648438 -0.226562 7.328125 -0.113281 6.828125 0.03125 C 6.328125 0.175781 5.785156 0.25 5.203125 0.25 C 3.929688 0.25 2.8125 -0.195312 1.84375 -1.09375 C 0.875 -1.988281 0.390625 -3.066406 0.390625 -4.328125 C 0.390625 -5.597656 0.875 -6.6875 1.84375 -7.59375 C 2.8125 -8.5 3.929688 -8.953125 5.203125 -8.953125 C 5.785156 -8.953125 6.316406 -8.882812 6.796875 -8.75 C 7.285156 -8.613281 7.632812 -8.476562 7.84375 -8.34375 L 8.125 -8.140625 L 7.109375 -6.09375 C 6.734375 -6.363281 6.25 -6.5 5.65625 -6.5 Z M 5.65625 -6.5 "/></g></g></g><g fill="#e4e0d7" fill-opacity="1"><g transform="translate(46.486566, 22.914103)"><g><path d="M 1.84375 -1.03125 C 0.875 -1.894531 0.390625 -3 0.390625 -4.34375 C 0.390625 -5.6875 0.890625 -6.789062 1.890625 -7.65625 C 2.898438 -8.519531 4.148438 -8.953125 5.640625 -8.953125 C 7.097656 -8.953125 8.328125 -8.515625 9.328125 -7.640625 C 10.328125 -6.773438 10.828125 -5.675781 10.828125 -4.34375 C 10.828125 -3.007812 10.335938 -1.910156 9.359375 -1.046875 C 8.378906 -0.179688 7.140625 0.25 5.640625 0.25 C 4.078125 0.25 2.8125 -0.175781 1.84375 -1.03125 Z M 4.15625 -5.8125 C 3.769531 -5.4375 3.578125 -4.945312 3.578125 -4.34375 C 3.578125 -3.738281 3.765625 -3.25 4.140625 -2.875 C 4.515625 -2.5 5.003906 -2.3125 5.609375 -2.3125 C 6.203125 -2.3125 6.6875 -2.503906 7.0625 -2.890625 C 7.445312 -3.273438 7.640625 -3.757812 7.640625 -4.34375 C 7.640625 -4.945312 7.441406 -5.4375 7.046875 -5.8125 C 6.660156 -6.195312 6.179688 -6.390625 5.609375 -6.390625 C 5.035156 -6.390625 4.550781 -6.195312 4.15625 -5.8125 Z M 4.15625 -5.8125 "/></g></g></g><g fill="#e4e0d7" fill-opacity="1"><g transform="translate(56.377995, 22.914103)"><g><path d="M 1.015625 0 L 1.015625 -8.703125 L 4.015625 -8.703125 L 4.015625 -7.78125 L 4.0625 -7.78125 C 4.832031 -8.5625 5.660156 -8.953125 6.546875 -8.953125 C 6.972656 -8.953125 7.398438 -8.894531 7.828125 -8.78125 C 8.253906 -8.675781 8.660156 -8.503906 9.046875 -8.265625 C 9.441406 -8.023438 9.757812 -7.6875 10 -7.25 C 10.25 -6.8125 10.375 -6.304688 10.375 -5.734375 L 10.375 0 L 7.359375 0 L 7.359375 -4.921875 C 7.359375 -5.367188 7.210938 -5.765625 6.921875 -6.109375 C 6.640625 -6.453125 6.265625 -6.625 5.796875 -6.625 C 5.347656 -6.625 4.9375 -6.445312 4.5625 -6.09375 C 4.195312 -5.738281 4.015625 -5.347656 4.015625 -4.921875 L 4.015625 0 Z M 1.015625 0 "/></g></g></g><g fill="#e4e0d7" fill-opacity="1"><g transform="translate(66.269423, 22.914103)"><g><path d="M 1.015625 0 L 1.015625 -8.703125 L 4.015625 -8.703125 L 4.015625 -7.78125 L 4.0625 -7.78125 C 4.832031 -8.5625 5.660156 -8.953125 6.546875 -8.953125 C 6.972656 -8.953125 7.398438 -8.894531 7.828125 -8.78125 C 8.253906 -8.675781 8.660156 -8.503906 9.046875 -8.265625 C 9.441406 -8.023438 9.757812 -7.6875 10 -7.25 C 10.25 -6.8125 10.375 -6.304688 10.375 -5.734375 L 10.375 0 L 7.359375 0 L 7.359375 -4.921875 C 7.359375 -5.367188 7.210938 -5.765625 6.921875 -6.109375 C 6.640625 -6.453125 6.265625 -6.625 5.796875 -6.625 C 5.347656 -6.625 4.9375 -6.445312 4.5625 -6.09375 C 4.195312 -5.738281 4.015625 -5.347656 4.015625 -4.921875 L 4.015625 0 Z M 1.015625 0 "/></g></g></g><g fill="#e4e0d7" fill-opacity="1"><g transform="translate(76.160852, 22.914103)"><g><path d="M 9.828125 -3.9375 L 3.515625 -3.9375 C 3.515625 -3.320312 3.710938 -2.867188 4.109375 -2.578125 C 4.503906 -2.285156 4.929688 -2.140625 5.390625 -2.140625 C 5.878906 -2.140625 6.265625 -2.203125 6.546875 -2.328125 C 6.828125 -2.460938 7.148438 -2.722656 7.515625 -3.109375 L 9.6875 -2.015625 C 8.78125 -0.503906 7.273438 0.25 5.171875 0.25 C 3.859375 0.25 2.734375 -0.195312 1.796875 -1.09375 C 0.859375 -1.988281 0.390625 -3.070312 0.390625 -4.34375 C 0.390625 -5.613281 0.859375 -6.695312 1.796875 -7.59375 C 2.734375 -8.5 3.859375 -8.953125 5.171875 -8.953125 C 6.554688 -8.953125 7.679688 -8.550781 8.546875 -7.75 C 9.410156 -6.957031 9.84375 -5.820312 9.84375 -4.34375 C 9.84375 -4.132812 9.835938 -4 9.828125 -3.9375 Z M 3.59375 -5.59375 L 6.90625 -5.59375 C 6.832031 -6.050781 6.648438 -6.398438 6.359375 -6.640625 C 6.078125 -6.890625 5.710938 -7.015625 5.265625 -7.015625 C 4.765625 -7.015625 4.363281 -6.882812 4.0625 -6.625 C 3.769531 -6.363281 3.613281 -6.019531 3.59375 -5.59375 Z M 3.59375 -5.59375 "/></g></g></g><g fill="#e4e0d7" fill-opacity="1"><g transform="translate(85.068191, 22.914103)"><g><path d="M 5.65625 -6.5 C 5.082031 -6.5 4.59375 -6.289062 4.1875 -5.875 C 3.78125 -5.457031 3.578125 -4.953125 3.578125 -4.359375 C 3.578125 -3.765625 3.78125 -3.253906 4.1875 -2.828125 C 4.59375 -2.410156 5.082031 -2.203125 5.65625 -2.203125 C 5.925781 -2.203125 6.179688 -2.234375 6.421875 -2.296875 C 6.660156 -2.367188 6.835938 -2.441406 6.953125 -2.515625 L 7.109375 -2.609375 L 8.125 -0.53125 C 8.050781 -0.46875 7.941406 -0.394531 7.796875 -0.3125 C 7.648438 -0.226562 7.328125 -0.113281 6.828125 0.03125 C 6.328125 0.175781 5.785156 0.25 5.203125 0.25 C 3.929688 0.25 2.8125 -0.195312 1.84375 -1.09375 C 0.875 -1.988281 0.390625 -3.066406 0.390625 -4.328125 C 0.390625 -5.597656 0.875 -6.6875 1.84375 -7.59375 C 2.8125 -8.5 3.929688 -8.953125 5.203125 -8.953125 C 5.785156 -8.953125 6.316406 -8.882812 6.796875 -8.75 C 7.285156 -8.613281 7.632812 -8.476562 7.84375 -8.34375 L 8.125 -8.140625 L 7.109375 -6.09375 C 6.734375 -6.363281 6.25 -6.5 5.65625 -6.5 Z M 5.65625 -6.5 "/></g></g></g><g fill="#e4e0d7" fill-opacity="1"><g transform="translate(92.075236, 22.914103)"><g><path d="M 1.53125 -8.703125 L 1.53125 -11.953125 L 4.53125 -11.953125 L 4.53125 -8.703125 L 6.359375 -8.703125 L 6.359375 -6.421875 L 4.53125 -6.421875 L 4.53125 -3.640625 C 4.53125 -2.835938 4.753906 -2.4375 5.203125 -2.4375 C 5.316406 -2.4375 5.4375 -2.457031 5.5625 -2.5 C 5.6875 -2.550781 5.785156 -2.597656 5.859375 -2.640625 L 5.953125 -2.71875 L 6.703125 -0.28125 C 6.054688 0.0703125 5.320312 0.25 4.5 0.25 C 3.925781 0.25 3.4375 0.148438 3.03125 -0.046875 C 2.625 -0.242188 2.316406 -0.507812 2.109375 -0.84375 C 1.898438 -1.175781 1.75 -1.523438 1.65625 -1.890625 C 1.570312 -2.253906 1.53125 -2.648438 1.53125 -3.078125 L 1.53125 -6.421875 L 0.265625 -6.421875 L 0.265625 -8.703125 Z M 1.53125 -8.703125 "/></g></g></g><g clip-path="url(#05c9c364c8)"><path fill="#202020" d="M 58.847656 18.394531 L 56.914062 18.394531 C 53.609375 17.679688 52.871094 16.941406 52.15625 13.628906 L 52.15625 11.769531 L 51.910156 11.769531 L 51.910156 13.648438 C 51.195312 16.945312 50.457031 17.679688 47.15625 18.394531 L 45.746094 18.394531 L 45.746094 18.640625 L 47.15625 18.640625 C 50.457031 19.355469 51.195312 20.089844 51.910156 23.386719 L 51.910156 25.230469 L 52.15625 25.230469 L 52.15625 23.40625 C 52.871094 20.09375 53.609375 19.355469 56.914062 18.640625 L 58.847656 18.640625 Z M 58.847656 18.394531 " fill-opacity="1" fill-rule="nonzero"/></g></svg>